<svg width="57" height="58" viewBox="0 0 57 58" fill="none" xmlns="http://www.w3.org/2000/svg">
<g id="streamline:star-2" clip-path="url(#clip0_92_110)">
<path id="Vector" d="M3.36713 27.0987L20.402 20.8979L26.5987 3.86713C26.7408 3.47698 26.9994 3.13999 27.3396 2.90186C27.6797 2.66374 28.0849 2.53601 28.5001 2.53601C28.9153 2.53601 29.3204 2.66374 29.6606 2.90186C30.0007 3.13999 30.2593 3.47698 30.4014 3.86713L36.6022 20.902L53.6371 27.0987C54.0272 27.2408 54.3642 27.4994 54.6023 27.8396C54.8404 28.1797 54.9682 28.5849 54.9682 29.0001C54.9682 29.4153 54.8404 29.8204 54.6023 30.1606C54.3642 30.5007 54.0272 30.7593 53.6371 30.9014L36.5981 37.1022L30.4014 54.1371C30.2593 54.5272 30.0007 54.8642 29.6606 55.1023C29.3204 55.3404 28.9153 55.4682 28.5001 55.4682C28.0849 55.4682 27.6797 55.3404 27.3396 55.1023C26.9994 54.8642 26.7408 54.5272 26.5987 54.1371L20.3979 37.0981L3.36713 30.9014C2.97698 30.7593 2.63999 30.5007 2.40186 30.1606C2.16374 29.8204 2.03601 29.4153 2.03601 29.0001C2.03601 28.5849 2.16374 28.1797 2.40186 27.8396C2.63999 27.4994 2.97698 27.2408 3.36713 27.0987Z" stroke="#D8A286" stroke-width="4" stroke-linecap="round" stroke-linejoin="round"/>
</g>
<defs>
<clipPath id="clip0_92_110">
<rect width="57" height="57" fill="white" transform="translate(0 0.5)"/>
</clipPath>
</defs>
</svg>
